<svg width="512" height="512" viewBox="0 0 512 512" fill="none" xmlns="http://www.w3.org/2000/svg" class="w-full h-full drop-shadow-xl" id="main-logo-svg"><rect x="64" y="64" width="384" height="384" rx="80" fill="#232F3E"/><g transform="translate(256, 256)" style="font-family: Arial, sans-serif; font-weight: bold;"><text x="-185" y="120" fill="#00E5FF" style="font-size: 345px;">$</text><g transform="translate(-30, 120) scale(1.2, 1)"><text x="0" y="0" fill="#00E5FF" style="font-size: 345px;">0</text></g><g transform="translate(70, -18) scale(1.5)"><path d="M-40 20 C-40 5, -30 -5, -15 -5 C-12 -18, 5 -25, 18 -15 C 30 -20, 45 -10, 45 5 C 55 5, 60 15, 60 25 C 60 35, 50 45, 35 45 L -25 45 C -35 45, -40 35, -40 20 Z" fill="#232F3E" stroke="#232F3E" stroke-width="6" stroke-linejoin="round"/><path d="M-40 20 C-40 5, -30 -5, -15 -5 C-12 -18, 5 -25, 18 -15 C 30 -20, 45 -10, 45 5 C 55 5, 60 15, 60 25 C 60 35, 50 45, 35 45 L -25 45 C -35 45, -40 35, -40 20 Z" fill="url(#goldGradient)"/></g></g><defs><linearGradient id="goldGradient" x1="0%" y1="0%" x2="0%" y2="100%"><stop offset="0%" stop-color="#EAB308"/><stop offset="100%" stop-color="#A16207"/></linearGradient></defs></svg>